%TF.GenerationSoftware,KiCad,Pcbnew,8.0.0*%
%TF.CreationDate,2024-02-28T17:19:02+01:00*%
%TF.ProjectId,carte-test-cable-usb,63617274-652d-4746-9573-742d6361626c,rev?*%
%TF.SameCoordinates,Original*%
%TF.FileFunction,Legend,Bot*%
%TF.FilePolarity,Positive*%
%FSLAX46Y46*%
G04 Gerber Fmt 4.6, Leading zero omitted, Abs format (unit mm)*
G04 Created by KiCad (PCBNEW 8.0.0) date 2024-02-28 17:19:02*
%MOMM*%
%LPD*%
G01*
G04 APERTURE LIST*
%ADD10C,0.150000*%
%ADD11C,0.120000*%
G04 APERTURE END LIST*
D10*
X140674166Y-104794819D02*
X141007499Y-104318628D01*
X141245594Y-104794819D02*
X141245594Y-103794819D01*
X141245594Y-103794819D02*
X140864642Y-103794819D01*
X140864642Y-103794819D02*
X140769404Y-103842438D01*
X140769404Y-103842438D02*
X140721785Y-103890057D01*
X140721785Y-103890057D02*
X140674166Y-103985295D01*
X140674166Y-103985295D02*
X140674166Y-104128152D01*
X140674166Y-104128152D02*
X140721785Y-104223390D01*
X140721785Y-104223390D02*
X140769404Y-104271009D01*
X140769404Y-104271009D02*
X140864642Y-104318628D01*
X140864642Y-104318628D02*
X141245594Y-104318628D01*
X139817023Y-103794819D02*
X140007499Y-103794819D01*
X140007499Y-103794819D02*
X140102737Y-103842438D01*
X140102737Y-103842438D02*
X140150356Y-103890057D01*
X140150356Y-103890057D02*
X140245594Y-104032914D01*
X140245594Y-104032914D02*
X140293213Y-104223390D01*
X140293213Y-104223390D02*
X140293213Y-104604342D01*
X140293213Y-104604342D02*
X140245594Y-104699580D01*
X140245594Y-104699580D02*
X140197975Y-104747200D01*
X140197975Y-104747200D02*
X140102737Y-104794819D01*
X140102737Y-104794819D02*
X139912261Y-104794819D01*
X139912261Y-104794819D02*
X139817023Y-104747200D01*
X139817023Y-104747200D02*
X139769404Y-104699580D01*
X139769404Y-104699580D02*
X139721785Y-104604342D01*
X139721785Y-104604342D02*
X139721785Y-104366247D01*
X139721785Y-104366247D02*
X139769404Y-104271009D01*
X139769404Y-104271009D02*
X139817023Y-104223390D01*
X139817023Y-104223390D02*
X139912261Y-104175771D01*
X139912261Y-104175771D02*
X140102737Y-104175771D01*
X140102737Y-104175771D02*
X140197975Y-104223390D01*
X140197975Y-104223390D02*
X140245594Y-104271009D01*
X140245594Y-104271009D02*
X140293213Y-104366247D01*
X140674166Y-109764819D02*
X141007499Y-109288628D01*
X141245594Y-109764819D02*
X141245594Y-108764819D01*
X141245594Y-108764819D02*
X140864642Y-108764819D01*
X140864642Y-108764819D02*
X140769404Y-108812438D01*
X140769404Y-108812438D02*
X140721785Y-108860057D01*
X140721785Y-108860057D02*
X140674166Y-108955295D01*
X140674166Y-108955295D02*
X140674166Y-109098152D01*
X140674166Y-109098152D02*
X140721785Y-109193390D01*
X140721785Y-109193390D02*
X140769404Y-109241009D01*
X140769404Y-109241009D02*
X140864642Y-109288628D01*
X140864642Y-109288628D02*
X141245594Y-109288628D01*
X139769404Y-108764819D02*
X140245594Y-108764819D01*
X140245594Y-108764819D02*
X140293213Y-109241009D01*
X140293213Y-109241009D02*
X140245594Y-109193390D01*
X140245594Y-109193390D02*
X140150356Y-109145771D01*
X140150356Y-109145771D02*
X139912261Y-109145771D01*
X139912261Y-109145771D02*
X139817023Y-109193390D01*
X139817023Y-109193390D02*
X139769404Y-109241009D01*
X139769404Y-109241009D02*
X139721785Y-109336247D01*
X139721785Y-109336247D02*
X139721785Y-109574342D01*
X139721785Y-109574342D02*
X139769404Y-109669580D01*
X139769404Y-109669580D02*
X139817023Y-109717200D01*
X139817023Y-109717200D02*
X139912261Y-109764819D01*
X139912261Y-109764819D02*
X140150356Y-109764819D01*
X140150356Y-109764819D02*
X140245594Y-109717200D01*
X140245594Y-109717200D02*
X140293213Y-109669580D01*
X140164166Y-94424819D02*
X140497499Y-93948628D01*
X140735594Y-94424819D02*
X140735594Y-93424819D01*
X140735594Y-93424819D02*
X140354642Y-93424819D01*
X140354642Y-93424819D02*
X140259404Y-93472438D01*
X140259404Y-93472438D02*
X140211785Y-93520057D01*
X140211785Y-93520057D02*
X140164166Y-93615295D01*
X140164166Y-93615295D02*
X140164166Y-93758152D01*
X140164166Y-93758152D02*
X140211785Y-93853390D01*
X140211785Y-93853390D02*
X140259404Y-93901009D01*
X140259404Y-93901009D02*
X140354642Y-93948628D01*
X140354642Y-93948628D02*
X140735594Y-93948628D01*
X139307023Y-93758152D02*
X139307023Y-94424819D01*
X139545118Y-93377200D02*
X139783213Y-94091485D01*
X139783213Y-94091485D02*
X139164166Y-94091485D01*
X140684166Y-113354819D02*
X141017499Y-112878628D01*
X141255594Y-113354819D02*
X141255594Y-112354819D01*
X141255594Y-112354819D02*
X140874642Y-112354819D01*
X140874642Y-112354819D02*
X140779404Y-112402438D01*
X140779404Y-112402438D02*
X140731785Y-112450057D01*
X140731785Y-112450057D02*
X140684166Y-112545295D01*
X140684166Y-112545295D02*
X140684166Y-112688152D01*
X140684166Y-112688152D02*
X140731785Y-112783390D01*
X140731785Y-112783390D02*
X140779404Y-112831009D01*
X140779404Y-112831009D02*
X140874642Y-112878628D01*
X140874642Y-112878628D02*
X141255594Y-112878628D01*
X140350832Y-112354819D02*
X139731785Y-112354819D01*
X139731785Y-112354819D02*
X140065118Y-112735771D01*
X140065118Y-112735771D02*
X139922261Y-112735771D01*
X139922261Y-112735771D02*
X139827023Y-112783390D01*
X139827023Y-112783390D02*
X139779404Y-112831009D01*
X139779404Y-112831009D02*
X139731785Y-112926247D01*
X139731785Y-112926247D02*
X139731785Y-113164342D01*
X139731785Y-113164342D02*
X139779404Y-113259580D01*
X139779404Y-113259580D02*
X139827023Y-113307200D01*
X139827023Y-113307200D02*
X139922261Y-113354819D01*
X139922261Y-113354819D02*
X140207975Y-113354819D01*
X140207975Y-113354819D02*
X140303213Y-113307200D01*
X140303213Y-113307200D02*
X140350832Y-113259580D01*
X140674166Y-99274819D02*
X141007499Y-98798628D01*
X141245594Y-99274819D02*
X141245594Y-98274819D01*
X141245594Y-98274819D02*
X140864642Y-98274819D01*
X140864642Y-98274819D02*
X140769404Y-98322438D01*
X140769404Y-98322438D02*
X140721785Y-98370057D01*
X140721785Y-98370057D02*
X140674166Y-98465295D01*
X140674166Y-98465295D02*
X140674166Y-98608152D01*
X140674166Y-98608152D02*
X140721785Y-98703390D01*
X140721785Y-98703390D02*
X140769404Y-98751009D01*
X140769404Y-98751009D02*
X140864642Y-98798628D01*
X140864642Y-98798628D02*
X141245594Y-98798628D01*
X140293213Y-98370057D02*
X140245594Y-98322438D01*
X140245594Y-98322438D02*
X140150356Y-98274819D01*
X140150356Y-98274819D02*
X139912261Y-98274819D01*
X139912261Y-98274819D02*
X139817023Y-98322438D01*
X139817023Y-98322438D02*
X139769404Y-98370057D01*
X139769404Y-98370057D02*
X139721785Y-98465295D01*
X139721785Y-98465295D02*
X139721785Y-98560533D01*
X139721785Y-98560533D02*
X139769404Y-98703390D01*
X139769404Y-98703390D02*
X140340832Y-99274819D01*
X140340832Y-99274819D02*
X139721785Y-99274819D01*
X153448214Y-87671009D02*
X153305357Y-87718628D01*
X153305357Y-87718628D02*
X153257738Y-87766247D01*
X153257738Y-87766247D02*
X153210119Y-87861485D01*
X153210119Y-87861485D02*
X153210119Y-88004342D01*
X153210119Y-88004342D02*
X153257738Y-88099580D01*
X153257738Y-88099580D02*
X153305357Y-88147200D01*
X153305357Y-88147200D02*
X153400595Y-88194819D01*
X153400595Y-88194819D02*
X153781547Y-88194819D01*
X153781547Y-88194819D02*
X153781547Y-87194819D01*
X153781547Y-87194819D02*
X153448214Y-87194819D01*
X153448214Y-87194819D02*
X153352976Y-87242438D01*
X153352976Y-87242438D02*
X153305357Y-87290057D01*
X153305357Y-87290057D02*
X153257738Y-87385295D01*
X153257738Y-87385295D02*
X153257738Y-87480533D01*
X153257738Y-87480533D02*
X153305357Y-87575771D01*
X153305357Y-87575771D02*
X153352976Y-87623390D01*
X153352976Y-87623390D02*
X153448214Y-87671009D01*
X153448214Y-87671009D02*
X153781547Y-87671009D01*
X152924404Y-87194819D02*
X152352976Y-87194819D01*
X152638690Y-88194819D02*
X152638690Y-87194819D01*
X151495833Y-88194819D02*
X152067261Y-88194819D01*
X151781547Y-88194819D02*
X151781547Y-87194819D01*
X151781547Y-87194819D02*
X151876785Y-87337676D01*
X151876785Y-87337676D02*
X151972023Y-87432914D01*
X151972023Y-87432914D02*
X152067261Y-87480533D01*
D11*
%TO.C,R6*%
X140762224Y-100387500D02*
X140252776Y-100387500D01*
X140762224Y-101432500D02*
X140252776Y-101432500D01*
%TO.C,R5*%
X140762224Y-107357500D02*
X140252776Y-107357500D01*
X140762224Y-108402500D02*
X140252776Y-108402500D01*
%TO.C,R4*%
X140752224Y-103927500D02*
X140242776Y-103927500D01*
X140752224Y-104972500D02*
X140242776Y-104972500D01*
%TO.C,R3*%
X140772224Y-110947500D02*
X140262776Y-110947500D01*
X140772224Y-111992500D02*
X140262776Y-111992500D01*
%TO.C,R2*%
X140762224Y-96867500D02*
X140252776Y-96867500D01*
X140762224Y-97912500D02*
X140252776Y-97912500D01*
%TO.C,BT1*%
X159050000Y-80750000D02*
X159050000Y-75250000D01*
X154250000Y-80750000D02*
X159050000Y-80750000D01*
X147450000Y-88850000D02*
X154300000Y-84050000D01*
X159050000Y-75250000D02*
X154250000Y-75250000D01*
X147350000Y-68500000D02*
X154050000Y-68500000D01*
X139550000Y-88850000D02*
X147450000Y-88850000D01*
X132750000Y-84050000D02*
X139550000Y-88850000D01*
X139650000Y-68500000D02*
X132950000Y-68500000D01*
X127950000Y-80750000D02*
X132750000Y-80750000D01*
X132750000Y-75250000D02*
X127950000Y-75250000D01*
X127950000Y-75250000D02*
X127950000Y-80750000D01*
X139650000Y-68500001D02*
G75*
G02*
X147346385Y-68498537I3850000J-9499999D01*
G01*
%TD*%
M02*
